<?xml version="1.0" encoding="UTF-8"?>
<svg xmlns="http://www.w3.org/2000/svg" viewBox="0 0 128 128">
  <defs>
    <linearGradient id="g" x1="0" x2="1">
      <stop offset="0" stop-color="#4f93ff"/>
      <stop offset="1" stop-color="#4f5ff0"/>
    </linearGradient>
  </defs>
  <rect width="128" height="128" rx="20" fill="#ffffff"/>
  <g transform="translate(16,14)">
    <rect width="96" height="100" rx="8" fill="url(#g)"/>
    <path d="M72 6 H24 v20 h48 z" fill="#fff" opacity="0.08"/>
    <!-- bookmark notch -->
    <path d="M24 100 L48 82 L72 100 V18 H24 Z" fill="#fff" opacity="0.12"/>
    <!-- book lines -->
    <g fill="#fff" opacity="0.95" transform="translate(12,28)">
      <rect x="0" y="0" width="56" height="4" rx="2" />
      <rect x="0" y="12" width="44" height="4" rx="2" />
      <rect x="0" y="24" width="50" height="4" rx="2" />
    </g>
    <!-- small bookmark tab -->
    <path d="M64 6 a6 6 0 0 1 6 6 v68 l-18-12-18 12 V12 a6 6 0 0 1 6-6z" fill="#ffffff" opacity="0.06"/>
  </g>
</svg>
